<?xml version="1.0" encoding="utf-8"?>
<!-- Generator: Adobe Illustrator 13.0.2, SVG Export Plug-In . SVG Version: 6.00 Build 14948)  -->
<!DOCTYPE svg PUBLIC "-//W3C//DTD SVG 1.1//EN" "http://www.w3.org/Graphics/SVG/1.1/DTD/svg11.dtd">
<svg version="1.1" id="Layer_1" xmlns="http://www.w3.org/2000/svg" xmlns:xlink="http://www.w3.org/1999/xlink" x="0px" y="0px"
	 width="720px" height="370px" viewBox="0 0 105.729 54.225" enable-background="new 0 0 105.729 54.225"
	 xml:space="preserve">
<g>
	<g>
		<g>
			<g>
				<path fill="#BFCADF" d="M92.138,27.875c-6.062-2.731-14.238-4.058-24.463-4.109l-0.001,1.426
					c10.938-0.008,19.861,2.394,24.913,5.927c6.699,4.686,7.556,11.138,1.924,15.586c0,0,3.346,3.192,7.963,7.521
					C108.984,45.752,105.824,34.041,92.138,27.875"/>
				<path fill="#BFCADF" d="M88.013,33.691c1.823,2.559,0.876,5.54-3.161,8.06c0,0,1.457,1.386,3.797,3.69
					c5.269-2.941,6.032-9.353,0.176-13.919c-3.917-3.055-10.211-5.097-21.151-5.065v1.336
					C76.492,27.768,85.407,29.679,88.013,33.691"/>
				<path fill="#BFCADF" d="M80.165,32.812c1.409,1.227,0.943,2.805-2.429,4.508l2.811,2.577c2.369-0.779,4.964-4.178,3.005-6.979
					c-1.568-2.237-6.03-3.906-15.878-3.876l0.001,1.351C73.301,30.502,78.366,31.248,80.165,32.812"/>
				<path fill="#BFCADF" d="M55.791,23.749c-7.642-0.695-11.61-3.615-5.345-7.027l-2.682-2.41
					c-3.911,1.287-8.369,9.543,8.027,10.775c2.013,0.152,5.952,0.182,9.748,0.109v-1.425C60.846,23.823,57.911,23.942,55.791,23.749
					"/>
				<path fill="#BFCADF" d="M65.094,26.472v0.004c-3.494,0.065-7.247,0.008-9.303-0.155c-15.601-1.233-20.663-8.513-12.227-13.776
					c0,0-1.458-1.385-3.796-3.689c-8.19,4.571-5.493,17.523,16.023,18.904c2.126,0.137,6.611,0.103,9.748,0.03V26.46
					C65.39,26.464,65.245,26.468,65.094,26.472"/>
				<path fill="#BFCADF" d="M55.791,28.979C32.87,27.587,24.601,14.831,33.859,7.52c0,0-3.346-3.191-7.963-7.52
					c-8.583,11.384-0.554,28.89,29.895,30.331c2.174,0.104,6.744,0.083,9.528,0.054c0.073-0.003,0.147-0.003,0.22-0.003v-1.334
					C61.744,29.122,58.004,29.114,55.791,28.979"/>
				<polygon fill="#00467F" points="0,37.905 2.136,37.905 2.136,19.271 2.198,19.271 13,37.905 15.879,37.905 15.879,16.301 
					13.743,16.301 13.743,35.306 13.682,35.306 2.693,16.301 0,16.301 				"/>
				<rect x="20.644" y="16.301" fill="#00467F" width="2.136" height="21.604"/>
				<path fill="#00467F" d="M62.421,16.733c-1.114-0.589-3.684-0.805-4.953-0.805c-6.686,0-10.894,4.611-10.894,11.174
					c0,6.687,4.085,11.174,10.894,11.174c1.362,0,3.777-0.216,4.953-0.928l-0.124-1.858c-1.238,0.744-3.405,0.929-4.829,0.929
					c-5.695,0-8.76-3.868-8.76-9.316c0-5.355,3.158-9.316,8.76-9.316c1.517,0,3.466,0.216,4.829,0.928L62.421,16.733z"/>
				<path fill-rule="evenodd" clip-rule="evenodd" fill="#00467F" d="M29.741,18.157h3.127c4.828,0,8.76,2.197,8.76,8.79
					c0,6.624-3.994,9.101-10.122,9.101h-1.765V18.157z M27.605,37.905h3.777c7.15,0,12.381-3.003,12.381-10.834
					c0-6.312-3.064-10.771-10.802-10.771h-5.356V37.905z"/>
				<path fill="#00467F" d="M70.893,16.301h-5.354v7.469h2.136v-5.612h3.127c4.828,0,8.758,2.197,8.758,8.79
					c0,6.624-3.993,9.101-10.121,9.101h-1.764v-5.66h-2.136v7.518h3.776c7.15,0,12.381-3.003,12.381-10.834
					C81.696,20.757,78.633,16.301,70.893,16.301 M67.675,25.191h-2.136v1.266h2.136V25.191z M67.675,27.793h-2.136v1.25h2.136
					V27.793z"/>
			</g>
		</g>
	</g>
</g>
</svg>
